<svg width="18" height="17" viewBox="0 0 18 17" fill="none" xmlns="http://www.w3.org/2000/svg">
<path d="M14.9434 4.2959C14.8341 3.4599 15.8642 3.56032 15.8508 1.90592C15.8401 0.53396 16.343 -0.861516 16.9627 3.0834C17.1427 4.2296 16.6387 5.19006 16.1505 5.47311" fill="#30B325"/>
<path d="M14.9434 4.2959C14.8341 3.4599 15.8642 3.56032 15.8508 1.90592C15.8401 0.53396 16.343 -0.861516 16.9627 3.0834C17.1427 4.2296 16.6387 5.19006 16.1505 5.47311" stroke="#383747" stroke-linecap="round" stroke-linejoin="round"/>
<path d="M13.4688 4.41327C14.6823 3.95337 15.9344 4.99705 16.2654 6.74423C16.5233 8.10552 15.9827 9.23857 15.3929 10.256C10.8837 18.035 1.6179 17.4938 1 14.2964C11.6179 11.2175 11.0841 5.31697 13.4688 4.41327V4.41327Z" fill="#FA1A1A" stroke="black" stroke-linecap="round" stroke-linejoin="round"/>
<path d="M14.9077 6.3714C15.0678 6.62164 15.1647 6.93981 15.1834 7.27627C15.2022 7.61272 15.1416 7.9485 15.0112 8.23109" stroke="white" stroke-linecap="round" stroke-linejoin="round"/>
</svg>
