<svg width="132" height="24" viewBox="0 0 132 24" fill="none" xmlns="http://www.w3.org/2000/svg">
<path d="M19.1982 0H23.9977L11.9989 23.9783L0 0H9.17914L11.9989 5.56018L14.7586 0H19.1982Z" fill="#41B883"/>
<path d="M0 0L11.9989 23.9783L23.9977 0H19.1982L11.9989 14.387L4.73955 0H0Z" fill="#41B883"/>
<path d="M4.73956 0L11.9989 14.4565L19.1982 0H14.7586L11.9989 5.56018L9.17915 0H4.73956Z" fill="#35495E"/>
<path d="M35.9219 8.78125H33.6016V7.65625H37.2969V14.3672H39.6328V15.5H33.3438V14.3672H35.9219V8.78125ZM36.3984 4.36719C36.5495 4.36719 36.6901 4.39583 36.8203 4.45312C36.9505 4.50521 37.0625 4.58073 37.1562 4.67969C37.2552 4.77865 37.3307 4.89323 37.3828 5.02344C37.4401 5.14844 37.4688 5.28646 37.4688 5.4375C37.4688 5.58333 37.4401 5.72135 37.3828 5.85156C37.3307 5.98177 37.2552 6.09635 37.1562 6.19531C37.0625 6.29427 36.9505 6.3724 36.8203 6.42969C36.6901 6.48177 36.5495 6.50781 36.3984 6.50781C36.2474 6.50781 36.1068 6.48177 35.9766 6.42969C35.8464 6.3724 35.7318 6.29427 35.6328 6.19531C35.5391 6.09635 35.4635 5.98177 35.4062 5.85156C35.3542 5.72135 35.3281 5.58333 35.3281 5.4375C35.3281 5.28646 35.3542 5.14844 35.4062 5.02344C35.4635 4.89323 35.5391 4.77865 35.6328 4.67969C35.7318 4.58073 35.8464 4.50521 35.9766 4.45312C36.1068 4.39583 36.2474 4.36719 36.3984 4.36719ZM42.5269 7.65625H43.7378L43.7925 8.92188C44.0217 8.65104 44.243 8.42708 44.4566 8.25C44.6701 8.06771 44.8784 7.92188 45.0816 7.8125C45.2899 7.70312 45.5008 7.6276 45.7144 7.58594C45.9279 7.53906 46.1493 7.51562 46.3784 7.51562C47.1857 7.51562 47.7951 7.75521 48.2066 8.23438C48.6232 8.70833 48.8316 9.42448 48.8316 10.3828V15.5H47.4722V10.4922C47.4722 9.8776 47.3576 9.42448 47.1284 9.13281C46.8993 8.83594 46.5581 8.6875 46.105 8.6875C45.9383 8.6875 45.7743 8.71354 45.6128 8.76562C45.4566 8.8125 45.2925 8.89844 45.1206 9.02344C44.9487 9.14323 44.7612 9.30729 44.5581 9.51562C44.3602 9.72396 44.1362 9.98438 43.8862 10.2969V15.5H42.5269V7.65625ZM51.4053 11.7422C51.4053 11.0755 51.4965 10.4844 51.6787 9.96875C51.861 9.44792 52.1189 9.01042 52.4522 8.65625C52.7907 8.29688 53.1944 8.02604 53.6631 7.84375C54.1371 7.65625 54.6631 7.5625 55.2412 7.5625C55.4912 7.5625 55.736 7.57812 55.9756 7.60938C56.2204 7.64062 56.46 7.6901 56.6944 7.75781V4.46094H58.0616V15.5H56.8428L56.7959 14.0156C56.4157 14.5677 56.0043 14.9766 55.5616 15.2422C55.1189 15.5078 54.6397 15.6406 54.1241 15.6406C53.6761 15.6406 53.2803 15.5469 52.9366 15.3594C52.598 15.1719 52.3142 14.9089 52.085 14.5703C51.861 14.2266 51.6918 13.8151 51.5772 13.3359C51.4626 12.8568 51.4053 12.3255 51.4053 11.7422ZM52.7959 11.6562C52.7959 12.6042 52.934 13.3125 53.21 13.7812C53.4912 14.2448 53.8871 14.4766 54.3975 14.4766C54.7412 14.4766 55.1032 14.3229 55.4834 14.0156C55.8689 13.7083 56.2725 13.2526 56.6944 12.6484V9.00781C56.4704 8.90365 56.223 8.82552 55.9522 8.77344C55.6814 8.71615 55.4131 8.6875 55.1475 8.6875C54.4079 8.6875 53.8298 8.92708 53.4131 9.40625C53.0017 9.88542 52.7959 10.6354 52.7959 11.6562ZM67.7056 11.1641C67.7056 11.3568 67.703 11.5182 67.6978 11.6484C67.6926 11.7786 67.6848 11.901 67.6744 12.0156H62.1666C62.1666 12.8177 62.3905 13.4349 62.8384 13.8672C63.2864 14.2943 63.9322 14.5078 64.7759 14.5078C65.0051 14.5078 65.2343 14.5 65.4634 14.4844C65.6926 14.4635 65.914 14.4375 66.1275 14.4062C66.341 14.375 66.5442 14.3411 66.7369 14.3047C66.9348 14.263 67.1171 14.2188 67.2838 14.1719V15.2891C66.914 15.3932 66.4947 15.4766 66.0259 15.5391C65.5624 15.6068 65.0806 15.6406 64.5806 15.6406C63.9088 15.6406 63.3306 15.5495 62.8463 15.3672C62.3619 15.1849 61.9634 14.9219 61.6509 14.5781C61.3436 14.2292 61.1145 13.8047 60.9634 13.3047C60.8176 12.7995 60.7447 12.2292 60.7447 11.5938C60.7447 11.0417 60.8228 10.5208 60.9791 10.0312C61.1405 9.53646 61.3723 9.10417 61.6744 8.73438C61.9817 8.35938 62.3567 8.0625 62.7994 7.84375C63.2421 7.625 63.7447 7.51562 64.3072 7.51562C64.8541 7.51562 65.3384 7.60156 65.7603 7.77344C66.1822 7.94531 66.5364 8.1901 66.8228 8.50781C67.1145 8.82031 67.3332 9.20312 67.4791 9.65625C67.6301 10.1042 67.7056 10.6068 67.7056 11.1641ZM66.2916 10.9688C66.3072 10.6198 66.2733 10.3021 66.19 10.0156C66.1067 9.72396 65.9765 9.47396 65.7994 9.26562C65.6275 9.05729 65.4114 8.89583 65.1509 8.78125C64.8905 8.66146 64.5884 8.60156 64.2447 8.60156C63.9478 8.60156 63.677 8.65885 63.4322 8.77344C63.1874 8.88802 62.9765 9.04948 62.7994 9.25781C62.6223 9.46615 62.4791 9.71615 62.3697 10.0078C62.2603 10.2995 62.1926 10.6198 62.1666 10.9688H66.2916ZM77.4278 15.5H75.6231L73.5059 12.5078L71.4122 15.5H69.6544L72.6934 11.5625L69.795 7.65625H71.5372L73.5997 10.6719L75.6231 7.65625H77.3028L74.3575 11.5938L77.4278 15.5ZM82.7203 13.0391C82.8974 13.0391 83.0641 13.0729 83.2203 13.1406C83.3818 13.2083 83.5198 13.3021 83.6344 13.4219C83.7542 13.5417 83.8479 13.6823 83.9156 13.8438C83.9833 14 84.0172 14.1693 84.0172 14.3516C84.0172 14.5286 83.9833 14.6953 83.9156 14.8516C83.8479 15.0078 83.7542 15.1458 83.6344 15.2656C83.5198 15.3802 83.3818 15.4714 83.2203 15.5391C83.0641 15.6068 82.8974 15.6406 82.7203 15.6406C82.538 15.6406 82.3688 15.6068 82.2125 15.5391C82.0563 15.4714 81.9182 15.3802 81.7984 15.2656C81.6839 15.1458 81.5927 15.0078 81.525 14.8516C81.4573 14.6953 81.4234 14.5286 81.4234 14.3516C81.4234 14.1693 81.4573 14 81.525 13.8438C81.5927 13.6823 81.6839 13.5417 81.7984 13.4219C81.9182 13.3021 82.0563 13.2083 82.2125 13.1406C82.3688 13.0729 82.538 13.0391 82.7203 13.0391ZM88.1769 7.65625H89.7238L91.6456 12.8438L92.0597 14.1094L92.4894 12.8125L94.3956 7.65625H95.8878L92.8097 15.5H91.2472L88.1769 7.65625ZM104.493 15.5H103.274L103.227 14.2344C102.993 14.5052 102.769 14.7318 102.555 14.9141C102.347 15.0911 102.139 15.2344 101.93 15.3438C101.722 15.4531 101.511 15.5286 101.298 15.5703C101.089 15.6172 100.868 15.6406 100.633 15.6406C99.8261 15.6406 99.2168 15.4036 98.8053 14.9297C98.3939 14.4557 98.1881 13.7396 98.1881 12.7812V7.65625H99.5475V12.6719C99.5475 13.875 100.001 14.4766 100.907 14.4766C101.074 14.4766 101.235 14.4531 101.391 14.4062C101.553 14.3542 101.719 14.2682 101.891 14.1484C102.068 14.0234 102.256 13.8568 102.454 13.6484C102.657 13.4401 102.883 13.1771 103.133 12.8594V7.65625H104.493V15.5ZM114.09 11.1641C114.09 11.3568 114.087 11.5182 114.082 11.6484C114.077 11.7786 114.069 11.901 114.059 12.0156H108.551C108.551 12.8177 108.775 13.4349 109.223 13.8672C109.671 14.2943 110.317 14.5078 111.16 14.5078C111.389 14.5078 111.619 14.5 111.848 14.4844C112.077 14.4635 112.298 14.4375 112.512 14.4062C112.725 14.375 112.929 14.3411 113.121 14.3047C113.319 14.263 113.501 14.2188 113.668 14.1719V15.2891C113.298 15.3932 112.879 15.4766 112.41 15.5391C111.947 15.6068 111.465 15.6406 110.965 15.6406C110.293 15.6406 109.715 15.5495 109.231 15.3672C108.746 15.1849 108.348 14.9219 108.035 14.5781C107.728 14.2292 107.499 13.8047 107.348 13.3047C107.202 12.7995 107.129 12.2292 107.129 11.5938C107.129 11.0417 107.207 10.5208 107.363 10.0312C107.525 9.53646 107.757 9.10417 108.059 8.73438C108.366 8.35938 108.741 8.0625 109.184 7.84375C109.626 7.625 110.129 7.51562 110.692 7.51562C111.238 7.51562 111.723 7.60156 112.145 7.77344C112.567 7.94531 112.921 8.1901 113.207 8.50781C113.499 8.82031 113.718 9.20312 113.863 9.65625C114.014 10.1042 114.09 10.6068 114.09 11.1641ZM112.676 10.9688C112.692 10.6198 112.658 10.3021 112.574 10.0156C112.491 9.72396 112.361 9.47396 112.184 9.26562C112.012 9.05729 111.796 8.89583 111.535 8.78125C111.275 8.66146 110.973 8.60156 110.629 8.60156C110.332 8.60156 110.061 8.65885 109.817 8.77344C109.572 8.88802 109.361 9.04948 109.184 9.25781C109.007 9.46615 108.863 9.71615 108.754 10.0078C108.645 10.2995 108.577 10.6198 108.551 10.9688H112.676Z" fill="black"/>
<circle cx="128" cy="12" r="4" fill="black"/>
</svg>
